<svg xmlns="http://www.w3.org/2000/svg" viewBox="0 0 171.31 171.11"><title>1</title><g id="Layer_2" data-name="Layer 2"><g id="Layer_1-2" data-name="Layer 1"><path d="M85.21,88.34A17.91,17.91,0,0,1,74.33,99.85a4.79,4.79,0,0,0-.56.26,2.69,2.69,0,0,0-.29.16,1.19,1.19,0,0,0-.15.09l-.29.2-.07,0-.28.23a.23.23,0,0,0-.07.07,1.89,1.89,0,0,0-.2.2.47.47,0,0,0-.1.1c-.07.08-.14.15-.2.23a.21.21,0,0,0-.06.08,2.83,2.83,0,0,0-.2.28h0a4.07,4.07,0,0,0-.31.53.81.81,0,0,0-.1.18l-.08.18a5.71,5.71,0,0,0-.21.58.83.83,0,0,1,0,.15c-.05.21-.09.41-.12.62a.71.71,0,0,0,0,.14,4.82,4.82,0,0,0,0,.65s0,.08,0,.11a5.53,5.53,0,0,0,.07.7,5.85,5.85,0,0,0,.25.91,5.23,5.23,0,0,0,.76,1.37h0l.25.3a6.51,6.51,0,0,0,.54.51l.06,0a4.34,4.34,0,0,0,.49.35v.35a8.69,8.69,0,0,1,0,2.16h0c-.17-.07-.34-.14-.51-.23a7.3,7.3,0,0,1-1.65-1.1,7.82,7.82,0,0,1-.93-1c-.12-.16-.23-.31-.33-.46a4.37,4.37,0,0,1-.25-.4.75.75,0,0,1-.07-.12,3.59,3.59,0,0,1-.17-.34,5.58,5.58,0,0,1-.3-.66c-.11-.32-.21-.64-.29-1a7.45,7.45,0,0,1,.56-4.87h0a7.55,7.55,0,0,1,2.08-2.59,5.48,5.48,0,0,1,.46-.34A6.83,6.83,0,0,1,73,98l0,0,.51-.21A15.84,15.84,0,0,0,83.61,85.37Z"/><path d="M63.32,103.68a4.74,4.74,0,0,0-.31,1.6v.09a.69.69,0,0,1-.28.57.68.68,0,0,1-.43.15h-.1a.73.73,0,0,1-.47-.27.51.51,0,0,1-.08-.13s0,0,0,0c0-.18-.11-.37-.18-.55s-.13-.38-.2-.56-.19-.5-.3-.75-.37-.76-.58-1.14a12.2,12.2,0,0,0-.7-1.12c-.12-.18-.25-.35-.38-.53s-.18-.23-.27-.33a4.19,4.19,0,0,0-.26-.33c-.19-.21-.37-.42-.57-.62a6.09,6.09,0,0,0-.44-.44,12.11,12.11,0,0,0-.93-.82l-.49-.37c-.22-.17-.44-.32-.67-.47a14.15,14.15,0,0,0-2.54-1.3,11.33,11.33,0,0,0-1.16-.4l-.39-.11a12.65,12.65,0,0,0-1.36-.29,14.06,14.06,0,0,0-2.35-.19V93.11a16.48,16.48,0,0,1,13.21,6.55A16.2,16.2,0,0,1,63.32,103.68Z"/><path d="M47.87,95.34a14.06,14.06,0,0,1,2.35.19,15.21,15.21,0,0,0-2.35-.19Z"/><path d="M52,95.93a11.33,11.33,0,0,1,1.16.4C52.75,96.18,52.37,96.05,52,95.93Z"/><path d="M59.3,101c.13.18.26.35.38.53-.12-.18-.25-.35-.39-.53a2.91,2.91,0,0,0-.26-.33Q59.16,100.83,59.3,101Z"/><path d="M61.65,105.68h0q-.07-.29-.18-.57c.07.18.13.37.18.55C61.64,105.67,61.65,105.67,61.65,105.68Z"/><path d="M62.32,114a8.06,8.06,0,0,1-1.2-.08A8.67,8.67,0,0,1,54,108l-.12-.4a6.52,6.52,0,0,0-.94-1.74,6.37,6.37,0,0,0-5.11-2.54V101a8.65,8.65,0,0,1,8.32,6.28v0a6.63,6.63,0,0,0,1,1.9,6.41,6.41,0,0,0,11.52-3.88.87.87,0,0,0-1.73,0,4.68,4.68,0,0,1-8.41,2.83,4.49,4.49,0,0,1-.71-1.33,10.49,10.49,0,0,0-1.72-3.46,10.3,10.3,0,0,0-8.27-4.1V97.07a12.55,12.55,0,0,1,10.05,5A12.7,12.7,0,0,1,60,106.21a2.56,2.56,0,0,0,.35.64,2.46,2.46,0,0,0,1.62,1,2.49,2.49,0,0,0,1.81-.48,2.43,2.43,0,0,0,1-1.95,3.11,3.11,0,0,1,6.21,0A8.66,8.66,0,0,1,62.32,114Z"/><path d="M83.55,107.65l-.1.44a17.81,17.81,0,0,1-2.75,6.2,18.08,18.08,0,0,1-6.89,5.93l0,.13A22.17,22.17,0,0,1,74,127a8.6,8.6,0,0,1,3.24,4.26,8.89,8.89,0,0,1,.3,1l0,.22v1.12H70v-1c-.06-.22-.12-.44-.19-.65a6.46,6.46,0,0,0-1.88-2.77l-.53-.44.17-.68a15.93,15.93,0,0,0-.83-10.1l-.45-1,1.05-.44a6.38,6.38,0,0,0,3.94-6.23,4.91,4.91,0,0,0,0-.53l2.21-.29a8.62,8.62,0,0,1-4.26,8.64,18.21,18.21,0,0,1,.7,9.89,8.6,8.6,0,0,1,2,3.25c0,.05,0,.1,0,.14h3a6.46,6.46,0,0,0-2.65-2.87l-.67-.38.11-.77a19.37,19.37,0,0,0-.08-6.62c0-.32-.12-.64-.19-.94l-.2-.92.85-.36A15.81,15.81,0,0,0,81.17,108a8.63,8.63,0,0,1,.23-8.45l1.92,1.14a6.4,6.4,0,0,0,0,6.57Z"/><path d="M81.92,108l-.12-2.24A15.73,15.73,0,0,0,94,99a16.33,16.33,0,0,0,1.48-2.63l2,.9a18.67,18.67,0,0,1-1.68,3A18,18,0,0,1,81.92,108Z"/><path d="M110.56,98.58l-7.12-3.07-.15-.51a5.14,5.14,0,0,1,.61-4.22,20.26,20.26,0,0,1-2-3.08,11.62,11.62,0,0,0-1.07,4.9,5.39,5.39,0,0,1-.68,2.63,6.06,6.06,0,0,1-1.47,1.69c-1.61,1.22-4.54,1.13-7.36-.37l1-1.93c2,1.11,4.06,1.24,5,.52a3.6,3.6,0,0,0,.83-.94,3.18,3.18,0,0,0,.43-1.61,14,14,0,0,1,2.48-7.94l1.17-1.71.78,1.91a19.83,19.83,0,0,0,3.16,5.2l.65.77-.7.73a2.88,2.88,0,0,0-.76,1.45,2.74,2.74,0,0,0,0,.89l2.3,1A8.85,8.85,0,0,1,108,92.5a8.75,8.75,0,0,1,.93-2.07,4.68,4.68,0,0,1-.39-.38,17.84,17.84,0,0,1-4.41-7.25l-.1-.29.07-.3a1.28,1.28,0,0,0-.34-1.19,1.36,1.36,0,0,0-1.84,0l-1.54-1.59a3.51,3.51,0,0,1,5,0,3.47,3.47,0,0,1,1,2.94,15.76,15.76,0,0,0,3.78,6.09c.3.3.64.61,1,.94l.83.71-.68.85a6.33,6.33,0,0,0-1.23,5.44Z"/><path d="M89.35,63.22a2.4,2.4,0,0,1-.93.94l0,0a2.42,2.42,0,0,1-.45.91A2.95,2.95,0,0,1,86.79,67a3.07,3.07,0,0,1-1.47.57,2.16,2.16,0,0,1-.94-.11l-.71-.21a1.67,1.67,0,0,1-1-.91L82.52,66a1.76,1.76,0,0,0-.09-.2.64.64,0,0,1-.06-.18.54.54,0,0,1,.11-.32.85.85,0,0,1,.38-.37,1.25,1.25,0,0,1,.92,0c.25.1.51.21.78.3a.82.82,0,0,0,1.2-.84.66.66,0,0,1,.28-.6c.25-.2.25-.23,0-.48,0,0,0,0,0,0s0,0,.07,0c.33-.14.33-.14.26-.5,0-.2,0-.3.21-.39a2.34,2.34,0,0,1,.38-.09c.4-.07.54-.25.41-.6-.2-.52-.43-1-.65-1.53-.12-.27-.12-.32.09-.51.4-.39.13-1.29.08-1.78a2,2,0,0,0-.17-.74,3,3,0,0,0-1.58-1.41,5.32,5.32,0,0,0-1.66-.52l1.38-2.08a8.74,8.74,0,0,1,3.88,3.05,4.35,4.35,0,0,1,.38,1.51,1.62,1.62,0,0,0,0,.2,4.93,4.93,0,0,1,0,2.15q.19.42.36.87A2.64,2.64,0,0,1,89.35,63.22Z"/><path d="M75.92,71l3.71,6.93c-1.12-.89-2.45-2-3.32-2.85-.53-.1-1.72-.39-1.81-.39a9.6,9.6,0,0,1-5.7-1.81,8.87,8.87,0,0,1-1.64-1.54A8.46,8.46,0,0,1,62,65l-.24-1.32,1.05-.83a6.3,6.3,0,0,1,.8-.55,8.08,8.08,0,0,1,5.18-.71c.34,0,.69.07,1,.09a16.93,16.93,0,0,0,2.66,0,1.24,1.24,0,0,0,.39-.1l1.86-1a3.11,3.11,0,0,1,1.63-.51h0a2.43,2.43,0,0,1,.68.1l1,.25a2.56,2.56,0,0,1,1.64,1.25,3,3,0,0,1-.46,3.66c-.19.24-.41.45-.62.67l-.21.19a4.47,4.47,0,0,1-2,1.28,3.4,3.4,0,0,1-1.47.14,2.71,2.71,0,0,1-.68-.17c-.37.13-.74.28-1.11.42a4.53,4.53,0,0,1-.68.3,3.25,3.25,0,0,1-1.37.09A6,6,0,0,1,69.6,68L69,67.79a5,5,0,0,1-1.24-.58c.92-.2,2.25-.55,2.77-.68l.19,0c.55-.17.82-.37,1.62-.68s1.54-.58,2.17-.79a1.28,1.28,0,0,0,.73.4,1.54,1.54,0,0,0,.54-.07,2.45,2.45,0,0,0,1-.7c.24-.25.51-.49.73-.76s.48-.62.22-1.08a.55.55,0,0,0-.12-.14.59.59,0,0,0-.14-.06l-1-.26-.16,0c-.21,0-.46.19-.65.29l-.77.39-1.07.54a3.52,3.52,0,0,1-1.2.34,20.26,20.26,0,0,1-3,0c-2-.13-3.47-.53-5,.33a4.8,4.8,0,0,0-.52.36,6.24,6.24,0,0,0,1.37,2.9,6.34,6.34,0,0,0,3,2,6.86,6.86,0,0,0,1.59,1.63,7.39,7.39,0,0,0,4.41,1.37s.2-2.36.2-2.36l.35.38a3.46,3.46,0,0,0,.58.41Z"/><path d="M105.35,69.6a13.37,13.37,0,0,1-1.2,2.31l-.27.4c-.66.17-1.16.32-1.57.43l-.19.06a8.74,8.74,0,0,1-2.23.42,1.76,1.76,0,0,1-.23,0A8.06,8.06,0,0,1,97,72.75a15,15,0,0,1-2.75.26,7.32,7.32,0,0,1-1.1,0,4.87,4.87,0,0,1-1.3-.38,5.14,5.14,0,0,1-.73-.41,4.53,4.53,0,0,1-.4-.67c-.07-.14-.14-.3-.21-.47a1.42,1.42,0,0,1-.05-.16A9.51,9.51,0,0,0,90,69.62a3.08,3.08,0,0,0-1-1.05,6,6,0,0,1,2.1,1,5.08,5.08,0,0,0,1.17.78,4,4,0,0,0,.92.33,4.5,4.5,0,0,0,1.05,0,12.29,12.29,0,0,0,2.93-.35,6,6,0,0,0,2.45.57c1,0,1.51-.3,3.84-.9l.54-.14h0Z"/><path d="M106.07,66.93a.54.54,0,0,0-.06.25l0,0a11.9,11.9,0,0,1-3.38.31c-1.72-.08-2.91-.51-4.5,0a5.46,5.46,0,0,0-1.12.52,6.86,6.86,0,0,0-4.84-.89,6.27,6.27,0,0,0-1.66.61,6.44,6.44,0,0,0-2.86-.61,26.46,26.46,0,0,1-3.7-1,7.78,7.78,0,0,1-1.27-.55l1.85-.09a8.72,8.72,0,0,1,5.91-.2A9.11,9.11,0,0,1,91.67,65a8.84,8.84,0,0,1,5.32.58l.4-.15a8.64,8.64,0,0,1,4.09-.25c.41,0,.8.09,1.22.11a10.31,10.31,0,0,0,1.9-.1,2.85,2.85,0,0,1,1.55-.79h.08A12.66,12.66,0,0,1,106.07,66.93Z"/><path d="M112.33,65.35a2.66,2.66,0,0,0-.47-.53v0l0,0-.38-.29a3.14,3.14,0,0,0-1-.41l-.11,0-.8-.15-.1,0-.27,0a2.34,2.34,0,0,0-1.05.19,1.69,1.69,0,0,0-.29.17,1.86,1.86,0,0,0-.37.3.43.43,0,0,0-.09.1s0,0,0,0a2.15,2.15,0,0,0-.49,1l-.07.39-.51,2.65a3.07,3.07,0,0,0,.09,1.57s0,0,0,0a3.29,3.29,0,0,0,.17.39l.2.34a3.24,3.24,0,0,0,.8.81c.09.07.19.12.28.18a3.3,3.3,0,0,0,.43.19l.47.13a2.91,2.91,0,0,0,1.06,0,3.2,3.2,0,0,0,.42-.1l.11,0a1.45,1.45,0,0,0,.25-.1,3.05,3.05,0,0,0,1.79-2.23l.42-2.16A3.1,3.1,0,0,0,112.33,65.35Zm-1.72,1.9-.19,1,0,.24-.18.94a.87.87,0,0,1-1,.67.74.74,0,0,1-.48-.28.85.85,0,0,1-.2-.72l.25-1.29.33-1.72.09,0,.36.07.4.08a.87.87,0,0,1,.55.36A.9.9,0,0,1,110.61,67.25Z"/><path d="M87.14,131.26a6.92,6.92,0,0,1,.29,1v1.34H79.82v-1.23l0-.45,0-.12a8,8,0,0,0-.37-1.32,10.93,10.93,0,0,0-1.77-3.21,15,15,0,0,0,.3-2.94,14,14,0,0,0-.44-3.51s0,0,0,0,0-.12,0-.17-.09-.34-.14-.51a20.43,20.43,0,0,0,1.85-1.49c.07.17.12.34.18.52a9.6,9.6,0,0,1,.34,1.16,17.85,17.85,0,0,1,.28,6.3,16.53,16.53,0,0,1,1.56,3.12,13,13,0,0,1,.45,1.59v0h2.84a6.4,6.4,0,0,0-2.65-2.87l-.68-.38.13-.77a20,20,0,0,0,.24-3.28,16.18,16.18,0,0,0-.31-3.32,15.28,15.28,0,0,0-.84-2.72l0-.14-.21-.5.25-.28.2-.24c.35-.41.69-.82,1-1.25.08-.13.17-.24.26-.37.35-.52.69-1,1-1.6s.59-1.09.85-1.66c.12-.28.23-.57.35-.87a8.31,8.31,0,0,0,.31-.88q.16-.47.3-1a19.46,19.46,0,0,0,2.52-.67A26,26,0,0,1,84,116.55c-.31.45-.64.88-1,1.29a17.36,17.36,0,0,1,1.07,6.24,20.43,20.43,0,0,1-.17,2.92A8.62,8.62,0,0,1,87.14,131.26Z"/><path d="M109.18,103.82l-.72.86a6.65,6.65,0,0,0-.62.94,5.62,5.62,0,0,0-.51,1.23,6.28,6.28,0,0,0-.09,3.28l.5,2.16-7.11-3.08-.14-.49a4.92,4.92,0,0,1-.12-2.44,5.11,5.11,0,0,1,.72-1.79,20.4,20.4,0,0,1-1.42-2.06,22.6,22.6,0,0,1-1.62-3.3,5.15,5.15,0,0,0,1.69-.84l.28-.22a20.07,20.07,0,0,0,1.79,3.56,19.81,19.81,0,0,0,1.57,2.12l.67.79-.74.73a3,3,0,0,0-.75,1.44,3,3,0,0,0,0,.88l2.3,1a8.67,8.67,0,0,1,.35-2.38,8.84,8.84,0,0,1,.9-2,12.66,12.66,0,0,1-1-1.07l0,0a13.17,13.17,0,0,1-2.32-4.2,12.33,12.33,0,0,1-.5-2L104.8,98a11.09,11.09,0,0,0,2,3.71.86.86,0,0,0,.13.14l.16.18A10.54,10.54,0,0,0,109.18,103.82Z"/><path d="M93.18,73a14.63,14.63,0,0,1-.9-2.42,1.09,1.09,0,0,0-1.06,0,.85.85,0,0,0-.26.29l-.47.06a1.42,1.42,0,0,0,.05.16c.07.17.14.33.21.47h-.1a2.88,2.88,0,0,1-.07,1c.15.41.31.81.49,1.2s.5,1,.79,1.53c.07.13.15.26.23.39a17.19,17.19,0,0,0,1.2,1.73l.16.2.44.53a20.1,20.1,0,0,1,1.4-1.65l.07-.08A15.44,15.44,0,0,1,93.18,73Z"/><path d="M92.24,73.69l-1.17,0-1.41,0-1.48,0a9.39,9.39,0,0,1-.91.35c-2.45.89-4,.69-5,.23L82,74.28a24.87,24.87,0,0,1-2.58-2.06c-.39-.3-.26-1.5-1-2.12a15.36,15.36,0,0,1,1.92.87c1.24.6,2.61,1.31,2.65,1.33.94.49,2.37.17,3.59-.27l.68-.27.39-.17.88,0,2.08-.06h.1l.77,0,.36,1.11Z"/><path d="M86.67,72.64a5,5,0,0,0-2.2-3.92,5.82,5.82,0,0,1,2.45,1A6.54,6.54,0,0,1,88.82,72Z"/><path d="M88.6,72.17c.44.66.9,1.29,1.28,2a20.56,20.56,0,0,1,1.05,2.1,21.54,21.54,0,0,1,1.36,4.45A19.68,19.68,0,0,0,90,76.94a17.73,17.73,0,0,0-1.4-1.58c-.48-.5-1-.92-1.52-1.37Z"/><path d="M87,76.83a3.7,3.7,0,0,1,1.12-1.11,4.48,4.48,0,0,1,1.37-.59,4.3,4.3,0,0,1,1.47-.1,3.23,3.23,0,0,1,1.43.5A11.41,11.41,0,0,1,91,76l-1.29.34-1.31.28A9.76,9.76,0,0,1,87,76.83Z"/><path d="M88.17,78.83a3.67,3.67,0,0,1,1.12-1.1,4.48,4.48,0,0,1,1.37-.59,4.28,4.28,0,0,1,1.47-.1,3.23,3.23,0,0,1,1.43.5,9.8,9.8,0,0,1-1.37.48c-.44.13-.86.24-1.29.34s-.86.2-1.31.29A8.73,8.73,0,0,1,88.17,78.83Z"/><path d="M94.64,37h2.24a15.79,15.79,0,0,0,6.8,13A17.83,17.83,0,0,1,111,60.83l-2.32-.09a15.63,15.63,0,0,0-6.28-8.94A18,18,0,0,1,94.64,37Z"/><path d="M111.45,64.77v0c0,.54,0,1.08-.07,1.62s-.1.87-.17,1.31a18,18,0,0,1-1.35,4.47l0,.1-.16.33c-.23.47-.48.94-.75,1.4s-.43.69-.66,1A18,18,0,0,1,104,79.42l-.44.3-.06,0A15.8,15.8,0,0,0,96.88,92.6H94.64a18.09,18.09,0,0,1,7.55-14.68l.08,0a4.44,4.44,0,0,0,.38-.27,15.82,15.82,0,0,0,3.75-3.82l.28-.42a11.22,11.22,0,0,0,.59-1c.07-.13.15-.27.21-.4a.76.76,0,0,0,.09-.18c.09-.17.18-.35.26-.53a.83.83,0,0,0,.37.42.86.86,0,0,0,1.18-.31l1.1-1.9a.89.89,0,0,0,.08-.66.77.77,0,0,0-.19-.34l0-.24.19-1a.9.9,0,0,0-.14-.65.87.87,0,0,0-.55-.36l-.4-.08-.36-.07,0-.48c0-.31,0-.61,0-.92s0-.53,0-.8v-.06a12.18,12.18,0,0,0-.14-1.34l2.26.08a13.64,13.64,0,0,1,.14,1.91C111.45,64.58,111.45,64.68,111.45,64.77Z"/><path d="M107.47,64.19a15.22,15.22,0,0,0-.2-1.77L105,62.33a11.37,11.37,0,0,1,.25,2.17v.08a.71.71,0,0,1,0,.14,11.67,11.67,0,0,1-.29,2.69,11.07,11.07,0,0,1-.9,2.53,10.41,10.41,0,0,1-.91,1.58,11.45,11.45,0,0,1-1,1.28,11.63,11.63,0,0,1-1.78,1.58c-.1.07-.2.15-.29.2l-.16.11a22.09,22.09,0,0,0-9.09,15.5l-8.56-15.8L80.38,71,78,66.6l-.57-1a2.55,2.55,0,0,1-1.28.34A2.43,2.43,0,0,1,75,65.62l1,2,13.38,25h3.47a19.77,19.77,0,0,1,8.26-16.06l.14-.1.34-.23A14.2,14.2,0,0,0,105,72.79a11.53,11.53,0,0,0,.66-1.05c.21-.36.39-.73.56-1.1.07-.14.13-.29.19-.43A14.32,14.32,0,0,0,107.3,67a13.19,13.19,0,0,0,.17-2.43v-.42Zm-6-11A19.75,19.75,0,0,1,92.91,37H90.53L75.6,60.19l-.46.71a2.52,2.52,0,0,1,1-.21,2.59,2.59,0,0,1,1.43.43l.46-.69L91,40.72a22,22,0,0,0,9.16,14.34,11.71,11.71,0,0,1,4.31,5.53l2.4.09A14,14,0,0,0,101.42,53.22Z"/><polygon points="117.82 62.49 117.73 63.83 78.46 62.94 78.46 61.59 117.82 62.49"/><path d="M115.6,68.21l-2.24-.08a6.16,6.16,0,0,1,2.79-4.92,6.13,6.13,0,0,1-2.41-5.11l2.23.09a3.91,3.91,0,0,0,3.75,4l-.08,2.23A3.9,3.9,0,0,0,115.6,68.21Z"/><path d="M34.61,120.91a11.66,11.66,0,0,0-1.74-5.19l-5.23-8.89L5.36,120l3.16,5.36,7.56-4.45,2.07,3.52a12.82,12.82,0,0,0,3.61,4.09A8,8,0,0,0,26,130a7.78,7.78,0,0,0,4.38-1.17,8.52,8.52,0,0,0,3.28-3.33A8.34,8.34,0,0,0,34.61,120.91Zm-5.94,1.15a5.23,5.23,0,0,1-1.5,1.33,4.16,4.16,0,0,1-1.73.57,2.71,2.71,0,0,1-1.67-.41,4.32,4.32,0,0,1-1.47-1.61l-2.07-3.52,6.43-3.78,2.07,3.52a3.78,3.78,0,0,1,.6,2.12A3.37,3.37,0,0,1,28.67,122.06Z"/><path d="M54.19,151.61l-.57.88a16.22,16.22,0,0,1-3.59,4,11.69,11.69,0,0,1-4.15,2.09,10.44,10.44,0,0,1-4.38.18A11.43,11.43,0,0,1,37.21,157a11.63,11.63,0,0,1-3.35-3.23,10.06,10.06,0,0,1-1.62-4.08,11.53,11.53,0,0,1,.22-4.65,16,16,0,0,1,2.21-4.9l.58-.88a15.89,15.89,0,0,1,3.59-4,11.72,11.72,0,0,1,4.15-2.1,10.07,10.07,0,0,1,4.37-.18A12.25,12.25,0,0,1,55,138,10.06,10.06,0,0,1,56.63,142a11.72,11.72,0,0,1-.23,4.65A16.14,16.14,0,0,1,54.19,151.61ZM48.32,149l.59-.91a15.34,15.34,0,0,0,1.57-3,7.48,7.48,0,0,0,.53-2.59,4.18,4.18,0,0,0-2-3.7,4.52,4.52,0,0,0-2.09-.76,4.23,4.23,0,0,0-2.11.42A7.76,7.76,0,0,0,42.68,140a17.26,17.26,0,0,0-2.1,2.67l-.59.9a16.82,16.82,0,0,0-1.58,3,7.57,7.57,0,0,0-.56,2.59,4.3,4.3,0,0,0,.47,2.14,4.48,4.48,0,0,0,1.55,1.61,4.21,4.21,0,0,0,2.05.73,4.35,4.35,0,0,0,2.13-.44,7.87,7.87,0,0,0,2.16-1.55A15.33,15.33,0,0,0,48.32,149Z"/><path d="M88.63,145.38l-2.55,25.73-6.18-.62-7.52-16.9-1.58,16L64.6,169l2.54-25.73,6.2.62,7.52,16.91,1.58-16Z"/><path d="M103.13,141.47l7.11,24.86-6,1.71-7.11-24.86Z"/><path d="M114.93,136h0l1.8-1.29Z"/><polygon points="141.2 148.93 131.81 155.66 130 156.96 126.75 159.3 111.67 138.3 114.92 135.97 116.73 134.67 126.17 127.89 128.97 131.8 119.53 138.58 122.72 143 130.66 137.3 133.37 141.06 125.42 146.77 129.01 151.78 138.4 145.03 141.2 148.93"/><path d="M153.51,121.15a3.11,3.11,0,0,0-1-.39,2.23,2.23,0,0,0-1.12.11,6.16,6.16,0,0,0-1.44.76,19.87,19.87,0,0,0-2,1.57,32.82,32.82,0,0,1-2.76,2.2,13.68,13.68,0,0,1-2.88,1.59,7.28,7.28,0,0,1-2.95.57,6.61,6.61,0,0,1-5.23-3,7,7,0,0,1-.93-3,10,10,0,0,1,.32-3.46,14.56,14.56,0,0,1,1.55-3.68,12,12,0,0,1,3.37-3.84,8.08,8.08,0,0,1,4.12-1.55,7.36,7.36,0,0,1,4.3,1.07l-3.11,5.36a3.6,3.6,0,0,0-1.69-.52,2.81,2.81,0,0,0-1.62.45,4.19,4.19,0,0,0-1.37,1.52,4.82,4.82,0,0,0-.69,1.88,2.77,2.77,0,0,0,.22,1.52,2.31,2.31,0,0,0,.92,1,1.8,1.8,0,0,0,1.08.25,3.43,3.43,0,0,0,1.24-.38,8.74,8.74,0,0,0,1.42-.89q.77-.58,1.62-1.35A25.93,25.93,0,0,1,148,116.5a12.08,12.08,0,0,1,2.95-1.43,7,7,0,0,1,2.85-.3,7.19,7.19,0,0,1,2.82,1,7,7,0,0,1,2.34,2.14,6.41,6.41,0,0,1,1,2.82,9,9,0,0,1-.3,3.32,15.06,15.06,0,0,1-1.55,3.63,15.58,15.58,0,0,1-2.4,3.13,11.17,11.17,0,0,1-3.11,2.24,7.69,7.69,0,0,1-7.48-.38l3.13-5.41a5.24,5.24,0,0,0,1.81.7,2.88,2.88,0,0,0,1.53-.14,3.59,3.59,0,0,0,1.31-.9A8.58,8.58,0,0,0,154,125.3a4.63,4.63,0,0,0,.67-1.83,2.4,2.4,0,0,0-.27-1.39A2.44,2.44,0,0,0,153.51,121.15Z"/><path d="M2.3,80.43v4.46H9.48v2H0V72.37H9.3v2h-7v4H9v2Z"/><path d="M12.71,83.46a3.47,3.47,0,0,0,1.41,1.36,3.92,3.92,0,0,0,1.75.42,3,3,0,0,0,1.42-.3,1,1,0,0,0,.57-.89,1,1,0,0,0-.42-.86,3.73,3.73,0,0,0-1.25-.51l-1.25-.32a5.68,5.68,0,0,1-2.34-1.12,3,3,0,0,1,.2-4.42A4.58,4.58,0,0,1,15.62,76,5,5,0,0,1,20,78.29l-1.66,1.23a4.35,4.35,0,0,0-1.28-1.15,3,3,0,0,0-1.5-.42,2.06,2.06,0,0,0-1.22.31,1,1,0,0,0-.44.83,1,1,0,0,0,.35.83,2.88,2.88,0,0,0,1.11.51l1.23.3a6.36,6.36,0,0,1,2.5,1.14,2.91,2.91,0,0,1,.37,3.92,3.51,3.51,0,0,1-1.55,1,6.33,6.33,0,0,1-2.12.35,6.22,6.22,0,0,1-2.89-.65,4.72,4.72,0,0,1-2-1.9Z"/><path d="M28.38,86.69a4,4,0,0,1-1.09.37,5.71,5.71,0,0,1-1.23.13,3.15,3.15,0,0,1-2.23-.75,2.86,2.86,0,0,1-.8-2.18v-5.9H21.27V76.28H23V73.44h2.28v2.84h2.62v2.08H25.31v5.57a1.22,1.22,0,0,0,.27.91,1.11,1.11,0,0,0,.82.26,2.71,2.71,0,0,0,.71-.08,4,4,0,0,0,.75-.26Z"/><path d="M30.12,86.77a1.4,1.4,0,0,1-.42-1,1.41,1.41,0,0,1,.42-1,1.44,1.44,0,0,1,2.05,0,1.41,1.41,0,0,1,.42,1,1.45,1.45,0,0,1-2.47,1Z"/><path d="M126.72,86.52V84.75L132,79.53a11.21,11.21,0,0,0,1.66-2,3.22,3.22,0,0,0,.5-1.69,2,2,0,0,0-.66-1.53,2.79,2.79,0,0,0-1.87-.57,2.48,2.48,0,0,0-1.85.72,4.33,4.33,0,0,0-1,2l-2.18-.52a6.13,6.13,0,0,1,1.79-3,4.64,4.64,0,0,1,3.28-1.2,6.18,6.18,0,0,1,2.51.48,3.69,3.69,0,0,1,1.68,1.4,3.89,3.89,0,0,1,.6,2.18,4.9,4.9,0,0,1-.64,2.48,11.74,11.74,0,0,1-2,2.46L130,84.42h6.72v2.1Z"/><path d="M141.66,86.09A4.92,4.92,0,0,1,139.71,84a7.32,7.32,0,0,1-.72-3.39V77.87a7.26,7.26,0,0,1,.72-3.37,5,5,0,0,1,1.95-2.09,5.44,5.44,0,0,1,2.75-.7,5.38,5.38,0,0,1,2.72.7,5,5,0,0,1,2,2.09,7.14,7.14,0,0,1,.73,3.37v2.75a7.2,7.2,0,0,1-.73,3.39,4.9,4.9,0,0,1-1.94,2.08,5.44,5.44,0,0,1-2.73.7A5.54,5.54,0,0,1,141.66,86.09Zm5-2.41a5,5,0,0,0,.86-3.17V78a5,5,0,0,0-.86-3.16,2.92,2.92,0,0,0-4.53,0,5,5,0,0,0-.85,3.16v2.53a5,5,0,0,0,.85,3.17,2.93,2.93,0,0,0,4.53,0Z"/><path d="M157.94,86.52h-2.3V75l-3,2.33-1.28-1.69L156.05,72h1.89Z"/><path d="M162.68,82.35A3.34,3.34,0,0,0,166,84.74a3.51,3.51,0,0,0,2.24-.65,2,2,0,0,0,.81-1.65,2.16,2.16,0,0,0-.86-1.76,3.83,3.83,0,0,0-2.46-.69h-1.89V78.07h1.89a3.41,3.41,0,0,0,2.2-.61,2,2,0,0,0,.76-1.62,1.82,1.82,0,0,0-.74-1.53,3.22,3.22,0,0,0-2-.55,2.92,2.92,0,0,0-2.9,2.12l-2-.77a5.38,5.38,0,0,1,1.8-2.47,5,5,0,0,1,3.13-.93,6.47,6.47,0,0,1,2.57.47,4,4,0,0,1,1.77,1.37A3.67,3.67,0,0,1,171,75.7a3.31,3.31,0,0,1-.63,2.07A3.87,3.87,0,0,1,168.72,79a4.18,4.18,0,0,1,1.86,1.32,3.42,3.42,0,0,1,.73,2.21,3.84,3.84,0,0,1-.67,2.23,4.36,4.36,0,0,1-1.87,1.49,6.73,6.73,0,0,1-2.74.53,5.34,5.34,0,0,1-5.38-3.69Z"/><path d="M29.06,44.68l2.61-3.15a12.62,12.62,0,0,0,2.61-4.78,7.59,7.59,0,0,0-2.61-8.23,8.52,8.52,0,0,0-4.25-2,8.39,8.39,0,0,0-4.61.67,11.82,11.82,0,0,0-4.29,3.39l-6.59,8,19.9,16.5,4-4.79Zm-6.84-11A3.78,3.78,0,0,1,24,32.41a3.29,3.29,0,0,1,1.89,0,5.07,5.07,0,0,1,1.76,1,4.21,4.21,0,0,1,1.13,1.43A2.79,2.79,0,0,1,29,36.54a4.46,4.46,0,0,1-1,1.92L25.35,41.6l-5.74-4.76Z"/><path d="M48.5,7.74,47,8.47,44.65,9.66l-1.41.7,3,27.38,6-3-.82-5L59.08,26l3.49,3.66,6-3ZM50.62,24.8l-1.53-9.3,6.51,6.82Z"/><path d="M89.34,15.4a10.14,10.14,0,0,0,1.92-1.14,6.51,6.51,0,0,0,2-2.43A8.82,8.82,0,0,0,94,8.14a7.45,7.45,0,0,0-1.13-4.32,7.4,7.4,0,0,0-3.36-2.68,13.88,13.88,0,0,0-5.17-1L74.14,0l-.42,25.85L80,26l.14-9.13,3.36.06,4.42,9.2,6.67.1v-.26Zm-9-10.49L84.24,5a4.18,4.18,0,0,1,1.94.46,2.83,2.83,0,0,1,1.18,1.24,4.29,4.29,0,0,1,.37,1.93,4.12,4.12,0,0,1-.43,1.89,2.74,2.74,0,0,1-1.19,1.19,4,4,0,0,1-2,.39L80.18,12Z"/><polygon points="129.62 12.72 127.58 17.08 120.54 13.78 111.62 32.84 105.97 30.2 114.89 11.14 108.01 7.92 110.05 3.56 116.93 6.78 122.58 9.42 129.62 12.72"/><path d="M146.6,27.61,141,38.41,152.65,35l4.26,5.18-18.07,4.1-7.18,5.89-4-4.89,7.18-5.9,7.52-16.95Z"/></g></g></svg>