<svg xmlns="http://www.w3.org/2000/svg" viewBox="0 0 71.85 96.67"><title>Party Ponies</title><g id="Layer_2" data-name="Layer 2"><g id="Layer_1-2" data-name="Layer 1"><path d="M8.39,52.85H6.16V35.79A32,32,0,0,1,32.09,4.35l.42,2.19A29.81,29.81,0,0,0,8.39,35.79Z"/><polygon points="70.19 92.89 43.42 92.89 43.42 90.65 67.95 90.65 67.95 38.94 70.19 38.94 70.19 92.89"/><path d="M37.34,51.37a18.13,18.13,0,0,1-2.4,4.9,17.88,17.88,0,0,1-4.35,4.41,17.48,17.48,0,0,1-4.14,2.2l-.56.25a2.19,2.19,0,0,0-.29.17.42.42,0,0,0-.14.09,1.87,1.87,0,0,0-.29.2l-.08,0-.27.23-.07.06a2,2,0,0,0-.2.21l-.1.1a2.2,2.2,0,0,0-.2.23.21.21,0,0,0-.06.08l-.2.27h0a4.15,4.15,0,0,0-.32.53.76.76,0,0,0-.09.18l-.08.18a5.71,5.71,0,0,0-.21.58.83.83,0,0,1,0,.15,4.52,4.52,0,0,0-.12.62c0,.05,0,.1,0,.14,0,.22,0,.44,0,.65,0,0,0,.07,0,.11a5.53,5.53,0,0,0,.07.7,4.92,4.92,0,0,0,.25.91,5,5,0,0,0,.76,1.36l0,0,.25.3a6.51,6.51,0,0,0,.54.51l.05,0a5.62,5.62,0,0,0,.5.35v.35a8.69,8.69,0,0,1,0,2.16h0L25,74.43a7.66,7.66,0,0,1-1.65-1.1,7.27,7.27,0,0,1-.93-1,4.84,4.84,0,0,1-.33-.46,3.22,3.22,0,0,1-.25-.39.54.54,0,0,1-.07-.13A2.57,2.57,0,0,1,21.6,71c-.11-.21-.2-.44-.29-.66a8.3,8.3,0,0,1-.29-1,7.45,7.45,0,0,1,.56-4.87h0a7.55,7.55,0,0,1,2.08-2.59,5.48,5.48,0,0,1,.46-.34,8,8,0,0,1,1-.57l.05,0,.51-.21A15.84,15.84,0,0,0,35.74,48.4Z"/><path d="M15.45,66.7a4.8,4.8,0,0,0-.31,1.61v.09a.69.69,0,0,1-.28.57.68.68,0,0,1-.43.15h-.1a.73.73,0,0,1-.47-.27.76.76,0,0,1-.08-.13s0,0,0,0c-.06-.18-.11-.37-.18-.55s-.13-.38-.2-.56-.2-.5-.3-.75-.37-.76-.58-1.14-.45-.75-.7-1.12c-.12-.18-.25-.36-.38-.53l-.27-.34-.27-.32c-.18-.21-.36-.42-.56-.62l-.44-.44c-.3-.29-.61-.56-.93-.82l-.49-.37c-.22-.17-.45-.32-.68-.47a13.44,13.44,0,0,0-2.53-1.3A12.23,12.23,0,0,0,4.1,59l-.4-.11a12.47,12.47,0,0,0-1.35-.29A14.06,14.06,0,0,0,0,58.37V56.13a16.46,16.46,0,0,1,13.21,6.56A16.65,16.65,0,0,1,15.45,66.7Z"/><path d="M0,58.37a14.06,14.06,0,0,1,2.35.19A14.06,14.06,0,0,0,0,58.37Z"/><path d="M4.1,59a12.23,12.23,0,0,1,1.16.4C4.88,59.21,4.49,59.08,4.1,59Z"/><path d="M11.43,64c.13.17.26.35.38.53L11.42,64c-.08-.12-.17-.23-.26-.34Z"/><path d="M13.78,68.71h0c-.06-.19-.11-.38-.18-.57.07.18.12.37.18.55C13.77,68.7,13.78,68.7,13.78,68.71Z"/><path d="M14.45,77.05a9.67,9.67,0,0,1-1.2-.08,8.59,8.59,0,0,1-5.71-3.34A8.8,8.8,0,0,1,6.17,71l-.12-.4a6.58,6.58,0,0,0-.94-1.75A6.38,6.38,0,0,0,0,66.3V64.06a8.59,8.59,0,0,1,6.89,3.42,8.54,8.54,0,0,1,1.43,2.86v0a6.41,6.41,0,0,0,12.51-2,.87.87,0,0,0-1.73,0A4.69,4.69,0,0,1,10,69.9a10.32,10.32,0,0,0-1.73-3.46A10.27,10.27,0,0,0,0,62.34V60.1a12.55,12.55,0,0,1,10.05,5,12.7,12.7,0,0,1,2.08,4.16,2.27,2.27,0,0,0,.35.64,2.44,2.44,0,0,0,4.39-1.48,3.1,3.1,0,0,1,6.2,0,8.65,8.65,0,0,1-8.62,8.65Z"/><path d="M35.68,70.68l-.1.44a17.81,17.81,0,0,1-2.75,6.2,18.08,18.08,0,0,1-6.89,5.93l0,.13A22.45,22.45,0,0,1,26.16,90a8.67,8.67,0,0,1,3.24,4.27,7.27,7.27,0,0,1,.29,1l0,.22v1.12H22.07v-1a5.17,5.17,0,0,0-.19-.64A6.38,6.38,0,0,0,20,92.26l-.52-.45.17-.67A15.93,15.93,0,0,0,18.82,81l-.45-1,1.05-.44a6.4,6.4,0,0,0,3.94-6.23c0-.18,0-.35,0-.53l2.21-.29a8.6,8.6,0,0,1-4.26,8.63A18.25,18.25,0,0,1,22,91a8.72,8.72,0,0,1,2,3.25.58.58,0,0,0,.05.14h3a6.46,6.46,0,0,0-2.65-2.87l-.68-.38.12-.77a19.37,19.37,0,0,0-.08-6.62c-.05-.32-.12-.64-.19-.94l-.2-.92.85-.36A15.72,15.72,0,0,0,31,76.05a16,16,0,0,0,2.31-5,8.64,8.64,0,0,1,.23-8.46l1.92,1.15a6.4,6.4,0,0,0,0,6.57Z"/><path d="M34.05,71l-.12-2.24A15.69,15.69,0,0,0,46.08,62a15.3,15.3,0,0,0,1.48-2.63l2,.9A18.06,18.06,0,0,1,34.05,71Z"/><path d="M62.69,61.61l-7.12-3.07L55.42,58A5.14,5.14,0,0,1,56,53.81a21.11,21.11,0,0,1-2-3.08A11.74,11.74,0,0,0,53,55.63a5.44,5.44,0,0,1-.68,2.62A6,6,0,0,1,50.82,60c-1.61,1.22-4.55,1.12-7.36-.37l1-1.93c2,1.11,4.05,1.24,5,.51a3.44,3.44,0,0,0,.83-.94,3.12,3.12,0,0,0,.43-1.6,14.07,14.07,0,0,1,2.47-7.95L54.37,46l.79,1.91a19.31,19.31,0,0,0,3.16,5.2l.65.77-.7.73A3,3,0,0,0,57.5,56a3,3,0,0,0,0,.89l2.3,1a8.47,8.47,0,0,1,.35-2.38,8.37,8.37,0,0,1,.93-2.07l-.4-.38a18.13,18.13,0,0,1-4.41-7.25l-.09-.3.07-.3a1.26,1.26,0,0,0-.34-1.18,1.37,1.37,0,0,0-1.85,0L52.5,42.47a3.5,3.5,0,0,1,5,0,3.44,3.44,0,0,1,1,2.94,15.64,15.64,0,0,0,3.78,6.09c.3.3.63.61,1,.94l.83.71-.68.84a6.28,6.28,0,0,0-1.23,5.45Z"/><path d="M41.48,26.25a2.54,2.54,0,0,1-.93.94l0,0a2.5,2.5,0,0,1-.45.91,3.11,3.11,0,0,1-.57,1.33,3.06,3.06,0,0,1-2.06,1.15,2.2,2.2,0,0,1-1-.11l-.7-.22a1.6,1.6,0,0,1-1-.9l-.15-.33a1.76,1.76,0,0,0-.09-.2,1.34,1.34,0,0,1-.07-.18.7.7,0,0,1,.12-.33A.83.83,0,0,1,35,28a1.29,1.29,0,0,1,.91,0c.26.11.52.22.79.31a.82.82,0,0,0,1.2-.84.67.67,0,0,1,.27-.6c.26-.2.26-.23.06-.48,0,0,0,0,0,0s0,0,.07,0c.33-.14.33-.14.26-.5,0-.2,0-.3.21-.39a2.11,2.11,0,0,1,.38-.09c.39-.07.53-.25.41-.6-.2-.52-.44-1-.65-1.54-.12-.26-.12-.31.09-.5.39-.4.12-1.29.08-1.78a2.29,2.29,0,0,0-.17-.74,3,3,0,0,0-1.59-1.42,5.46,5.46,0,0,0-1.65-.51L37,16.19a8.77,8.77,0,0,1,3.89,3,4.29,4.29,0,0,1,.38,1.51,1.62,1.62,0,0,0,0,.2,4.93,4.93,0,0,1,0,2.15q.19.42.36.87A2.65,2.65,0,0,1,41.48,26.25Z"/><path d="M28.05,34,31.76,41c-1.12-.89-2.46-2-3.32-2.85-.53-.1-1.72-.39-1.81-.39a9.41,9.41,0,0,1-7.35-3.35A8.6,8.6,0,0,1,16,32,8.51,8.51,0,0,1,14.1,28l-.24-1.32,1.05-.83a6.3,6.3,0,0,1,.8-.55,8.08,8.08,0,0,1,5.18-.71c.34,0,.69.07,1.05.09a16.93,16.93,0,0,0,2.66,0,.94.94,0,0,0,.38-.11l1.87-.95a3.11,3.11,0,0,1,1.63-.51h0a3.15,3.15,0,0,1,.68.09l1,.26a2.5,2.5,0,0,1,.89.4,2.54,2.54,0,0,1,.76.85,3,3,0,0,1-.46,3.66q-.3.35-.63.66l-.21.2a4.43,4.43,0,0,1-2,1.28,3.56,3.56,0,0,1-1.47.14,2.61,2.61,0,0,1-.68-.17c-.37.13-.74.28-1.11.42a5,5,0,0,1-.68.3,3.25,3.25,0,0,1-1.37.09,6.44,6.44,0,0,1-1.53-.3l-.58-.17a5,5,0,0,1-1.24-.58c.91-.2,2.24-.55,2.76-.68a1,1,0,0,0,.2-.06c.55-.16.82-.36,1.62-.68S26,28.25,26.66,28a1.16,1.16,0,0,0,1.27.33,2.36,2.36,0,0,0,1-.7c.25-.25.51-.49.74-.76s.48-.62.21-1.09a.35.35,0,0,0-.11-.13.25.25,0,0,0-.15-.06l-1-.26a.41.41,0,0,0-.16,0,1.74,1.74,0,0,0-.65.3l-.77.39L26,26.57a3.52,3.52,0,0,1-1.2.34,20.26,20.26,0,0,1-3,0c-1.95-.13-3.47-.53-5,.33a5.58,5.58,0,0,0-.52.35,6.22,6.22,0,0,0,1.37,2.91,6.32,6.32,0,0,0,3,1.95,7.12,7.12,0,0,0,1.6,1.63,7.39,7.39,0,0,0,4.41,1.37s.2-2.36.2-2.36l.35.37a2.71,2.71,0,0,0,.58.42Z"/><path d="M57.47,32.63a13.31,13.31,0,0,1-1.19,2.31c-.09.13-.18.27-.28.39l-1.56.44-.19.06a9.19,9.19,0,0,1-2.23.42h-.23a8.45,8.45,0,0,1-2.64-.47,14.79,14.79,0,0,1-2.74.26,9,9,0,0,1-1.1,0,4.52,4.52,0,0,1-1.3-.39,5.38,5.38,0,0,1-.74-.4,6,6,0,0,1-.39-.68c-.07-.14-.14-.29-.21-.47l-.06-.15a8.32,8.32,0,0,0-.44-1.26,3.09,3.09,0,0,0-1-1,5.72,5.72,0,0,1,2.09,1,5.59,5.59,0,0,0,1.17.78,4.17,4.17,0,0,0,.93.33,4.42,4.42,0,0,0,1,0,12.26,12.26,0,0,0,2.94-.36A6,6,0,0,0,51.8,34c1,0,1.51-.3,3.83-.9l.55-.15h0Z"/><path d="M58.2,30a.66.66,0,0,0-.07.25l0,0a12.29,12.29,0,0,1-3.38.31c-1.72-.08-2.91-.51-4.5,0a5.28,5.28,0,0,0-1.12.51,7,7,0,0,0-4.84-.89,6.14,6.14,0,0,0-1.66.61,6.61,6.61,0,0,0-2.86-.6,26.11,26.11,0,0,1-3.7-1,7.78,7.78,0,0,1-1.27-.55l1.85-.09a9,9,0,0,1,2-.53,8.39,8.39,0,0,1,3.87.33,8.57,8.57,0,0,1,6.58.21l.4-.15a8.64,8.64,0,0,1,4.09-.25c.41.05.8.09,1.22.11a10.31,10.31,0,0,0,1.9-.1,2.76,2.76,0,0,1,1.54-.79h.09A13.45,13.45,0,0,1,58.2,30Z"/><path d="M64.46,28.38a2.66,2.66,0,0,0-.47-.53v0s0,0,0,0l-.38-.29a3.14,3.14,0,0,0-1-.41l-.11,0-.8-.15-.1,0-.27,0a2.21,2.21,0,0,0-1.05.19,1.78,1.78,0,0,0-.3.17,1.31,1.31,0,0,0-.36.3.28.28,0,0,0-.09.1h0a2.29,2.29,0,0,0-.48,1l-.07.4-.51,2.65a3,3,0,0,0,.09,1.57,0,0,0,0,1,0,0,2.83,2.83,0,0,0,.17.4l.2.34a3.08,3.08,0,0,0,.8.81L60,35a3.3,3.3,0,0,0,.43.19l.47.13a2.91,2.91,0,0,0,1.06,0l.41-.1.12,0,.25-.1a3.05,3.05,0,0,0,1.79-2.23l.42-2.16A3.14,3.14,0,0,0,64.46,28.38Zm-1.73,1.9-.19,1,0,.24-.19.94a.85.85,0,0,1-1,.68.79.79,0,0,1-.49-.28.89.89,0,0,1-.19-.73l.24-1.28.33-1.72.09,0,.37.07.4.08a.85.85,0,0,1,.68,1Z"/><path d="M39.27,94.29a8.7,8.7,0,0,1,.29,1v1.35H32V95.44L31.9,95l0-.12a9.15,9.15,0,0,0-.37-1.32,10.73,10.73,0,0,0-1.78-3.21,14.26,14.26,0,0,0,.31-3,13.93,13.93,0,0,0-.44-3.5h0c0-.06,0-.12-.05-.17s-.09-.35-.14-.52a20,20,0,0,0,1.85-1.48l.18.52a11.83,11.83,0,0,1,.34,1.16,17.61,17.61,0,0,1,.27,6.3,16,16,0,0,1,1.57,3.12,13.05,13.05,0,0,1,.44,1.59v0h2.84a6.48,6.48,0,0,0-2.65-2.88l-.68-.37.13-.77a18.91,18.91,0,0,0,.23-3.28,15.44,15.44,0,0,0-.31-3.32,15.25,15.25,0,0,0-.83-2.72L32.74,81l-.2-.5.25-.28.2-.24c.35-.41.68-.82,1-1.25l.26-.37a17.78,17.78,0,0,0,1-1.6c.31-.54.58-1.1.84-1.66.13-.28.24-.57.36-.87s.22-.58.31-.88.21-.63.3-1a18,18,0,0,0,2.52-.68,26.1,26.1,0,0,1-3.49,7.92c-.31.44-.63.88-1,1.29a18.75,18.75,0,0,1,.7,2.48,18.3,18.3,0,0,1,.37,3.76A20.43,20.43,0,0,1,36,90,8.68,8.68,0,0,1,39.27,94.29Z"/><path d="M61.31,66.84l-.72.87a5.45,5.45,0,0,0-.62.94,5.62,5.62,0,0,0-.52,1.23,6.35,6.35,0,0,0-.08,3.27l.5,2.16-7.11-3.07-.14-.49a4.92,4.92,0,0,1-.12-2.44,4.85,4.85,0,0,1,.72-1.79,21,21,0,0,1-3-5.36,5.25,5.25,0,0,0,1.69-.84l.28-.22a19.42,19.42,0,0,0,1.79,3.56,19.81,19.81,0,0,0,1.56,2.12l.68.79-.74.73a2.92,2.92,0,0,0-.75,1.44,3,3,0,0,0,0,.88l2.3,1a8.26,8.26,0,0,1,.35-2.38,8.65,8.65,0,0,1,.9-2,11.2,11.2,0,0,1-1-1.07l0,0a13.17,13.17,0,0,1-2.32-4.2,12.19,12.19,0,0,1-.5-2L56.93,61a11.09,11.09,0,0,0,2,3.71.53.53,0,0,0,.12.14l.17.18A10.18,10.18,0,0,0,61.31,66.84Z"/><path d="M45.31,36a15.63,15.63,0,0,1-.91-2.42,1.07,1.07,0,0,0-1,0,.9.9,0,0,0-.27.29l-.47.06.06.15c.07.18.14.33.21.47h-.1a3.18,3.18,0,0,1-.07,1c.14.41.31.8.49,1.2A15.83,15.83,0,0,0,44,38.29c.07.13.15.26.23.39a15.7,15.7,0,0,0,1.2,1.73l.16.2.44.53a18.52,18.52,0,0,1,1.39-1.65l.08-.08A15.09,15.09,0,0,1,45.31,36Z"/><path d="M44.37,36.72l-1.17,0-1.41,0-1.48,0c-.31.13-.62.25-.91.35-2.45.89-4,.68-5,.23l-.24-.11a23.78,23.78,0,0,1-2.58-2.06c-.39-.3-.27-1.5-1-2.13a16,16,0,0,1,1.93.88c1.24.6,2.61,1.31,2.65,1.33.94.49,2.37.17,3.59-.27l.68-.27.39-.17.88,0,2.08-.07h.1l.77,0,.36,1.1Z"/><path d="M38.8,35.67a5,5,0,0,0-2.21-3.92,5.73,5.73,0,0,1,2.46,1A6.41,6.41,0,0,1,40.94,35Z"/><path d="M40.73,35.2c.44.66.9,1.29,1.28,2a20.56,20.56,0,0,1,1.05,2.1,20.92,20.92,0,0,1,1.35,4.45A18.87,18.87,0,0,0,42.12,40a17.73,17.73,0,0,0-1.4-1.58c-.48-.5-1-.93-1.53-1.37Z"/><path d="M39.11,39.85a3.67,3.67,0,0,1,1.12-1.1,4.48,4.48,0,0,1,1.37-.59,4.28,4.28,0,0,1,1.47-.1,3.23,3.23,0,0,1,1.43.5,11.41,11.41,0,0,1-1.37.49l-1.29.33c-.43.11-.86.2-1.31.29A8.73,8.73,0,0,1,39.11,39.85Z"/><path d="M40.3,41.86a3.56,3.56,0,0,1,1.12-1.1,4.16,4.16,0,0,1,1.37-.59,4.28,4.28,0,0,1,1.47-.1,3.23,3.23,0,0,1,1.43.5,10.27,10.27,0,0,1-1.37.48c-.44.13-.87.24-1.29.34s-.86.2-1.31.29A10,10,0,0,1,40.3,41.86Z"/><path d="M46.77,0H49a15.83,15.83,0,0,0,6.81,13,17.83,17.83,0,0,1,7.32,10.87l-2.32-.09a15.63,15.63,0,0,0-6.28-8.94A18,18,0,0,1,46.77,0Z"/><path d="M63.58,27.8v0c0,.54,0,1.08-.07,1.62s-.1.87-.17,1.31A17.75,17.75,0,0,1,62,35.23a.42.42,0,0,1,0,.1l-.16.33c-.23.47-.48.94-.75,1.4s-.43.68-.66,1a17.91,17.91,0,0,1-4.28,4.36c-.15.11-.29.21-.45.31l0,0A15.84,15.84,0,0,0,49,55.63H46.77A18.08,18.08,0,0,1,54.32,41l.08-.05.38-.27a15.69,15.69,0,0,0,3.75-3.83l.28-.42c.21-.32.41-.64.59-1l.21-.4.09-.18.26-.53a.83.83,0,0,0,.37.42.86.86,0,0,0,1.18-.31l1.09-1.9a.85.85,0,0,0,.09-.66.86.86,0,0,0-.19-.35l0-.24.19-1a.85.85,0,0,0-.68-1l-.4-.08-.37-.07c0-.16,0-.32,0-.48,0-.31,0-.61,0-.92s0-.53,0-.8v-.06c0-.45-.08-.89-.14-1.34l2.26.08a13.64,13.64,0,0,1,.14,1.91C63.58,27.61,63.58,27.71,63.58,27.8Z"/><path d="M59.59,27.22a13.12,13.12,0,0,0-.19-1.77l-2.3-.09a10.63,10.63,0,0,1,.26,2.17v.08a.71.71,0,0,1,0,.14,12.24,12.24,0,0,1-.29,2.69,12.28,12.28,0,0,1-1.81,4.1,9.88,9.88,0,0,1-1,1.28,11.7,11.7,0,0,1-1.78,1.59l-.29.2-.17.11a22.11,22.11,0,0,0-9.08,15.5l-8.56-15.8L32.51,34l-2.37-4.37-.57-1.05a2.55,2.55,0,0,1-1.28.34,2.5,2.5,0,0,1-1.15-.27l1.05,2,13.38,25H45a19.79,19.79,0,0,1,8.25-16.06l.15-.1.34-.23a14.2,14.2,0,0,0,3.33-3.41c.24-.34.45-.69.66-1s.39-.73.56-1.1c.07-.14.13-.29.19-.43a14.32,14.32,0,0,0,.91-3.17,13.19,13.19,0,0,0,.17-2.43v-.12C59.6,27.42,59.6,27.32,59.59,27.22Zm-6-11A19.75,19.75,0,0,1,45,0H42.66L27.73,23.22l-.46.7a2.69,2.69,0,0,1,1-.2,2.51,2.51,0,0,1,1.43.43l.46-.7L43.12,3.75a22,22,0,0,0,9.16,14.34,11.67,11.67,0,0,1,4.31,5.53l2.4.09A14,14,0,0,0,53.55,16.25Z"/><polygon points="69.95 25.51 69.86 26.86 30.58 25.97 30.58 24.62 69.95 25.51"/><path d="M67.72,31.24l-2.23-.09a6.13,6.13,0,0,1,2.79-4.91,6.16,6.16,0,0,1-2.42-5.11l2.24.09a3.9,3.9,0,0,0,3.75,4l-.09,2.24A3.91,3.91,0,0,0,67.72,31.24Z"/></g></g></svg>
